<?xml version="1.0" encoding="UTF-8"?> <svg xmlns="http://www.w3.org/2000/svg" width="195" height="70" viewBox="0 0 195 70" fill="none"><path d="M0.0415595 28.5401V25.0504H5.69373V28.9555C5.69373 31.1157 5.85997 32.6528 6.23402 33.5252C6.60806 34.3976 7.31458 34.8546 8.31202 34.8546C9.35102 34.8546 10.016 34.4807 10.3485 33.7745C10.6809 33.0682 10.8472 31.8635 10.8472 30.2433C10.8472 28.6231 10.5563 27.1691 9.97442 25.9644C9.39258 24.7596 8.4367 23.4718 7.14834 22.1424L4.28069 19.1513C2.95077 17.7389 1.8702 16.2849 1.12212 14.7893C0.37404 13.2938 0 11.549 0 9.55489C0 6.31454 0.623402 3.94659 1.8702 2.36795C3.11701 0.789316 5.23657 0 8.27046 0C11.3043 0 13.3408 0.913946 14.4214 2.74184C15.5019 4.56973 16.0422 7.22849 16.0422 10.7181V13.1276H10.5563V10.3442C10.5563 8.43324 10.39 7.10386 10.0575 6.273C9.72506 5.44214 9.10166 5.02671 8.18734 5.02671C7.27302 5.02671 6.60805 5.31751 6.19245 5.94065C5.77685 6.5638 5.56905 7.47774 5.56905 8.72403C5.56905 9.97032 5.77685 10.9674 6.19245 11.7151C6.60805 12.4629 7.35614 13.4184 8.4367 14.5401L11.6368 18.0297C13.2577 19.7745 14.4629 21.5608 15.2941 23.3472C16.1253 25.1335 16.5409 27.0861 16.5409 29.2047C16.5409 32.8605 15.9175 35.5608 14.7123 37.3056C13.4655 39.0504 11.3459 39.9229 8.27046 39.9229C5.19501 39.9229 3.07545 38.9674 1.8702 37.0148C0.664962 35.1039 0.0415595 32.2789 0.0415595 28.5401Z" fill="url(#paint0_linear_57_276)"></path><path d="M19.8242 39.5074V0.498515H32.9156V5.60831H25.7673V16.9496H32.5416V21.9763H25.7673V34.3976H33.165V39.5074H19.8242Z" fill="url(#paint1_linear_57_276)"></path><path d="M53.5294 10.5104C53.5294 14.7062 52.4073 17.2819 50.1215 18.2374C52.906 19.1513 54.2775 22.2255 54.2775 27.4599V28.457C54.2359 32.362 53.571 35.1869 52.241 36.9318C50.9111 38.6766 48.7084 39.5074 45.6745 39.5074H37.0301V0.498515H45.4667C48.376 0.498515 50.454 1.1632 51.6592 2.53412C52.8644 3.90504 53.4879 6.14837 53.4879 9.34718V10.5104H53.5294ZM45.1758 16.2849C46.2148 16.2849 46.8798 15.9525 47.1707 15.3294C47.5032 14.6647 47.6279 13.3353 47.6279 11.2997V8.93175C47.6279 7.4362 47.4201 6.39763 47.0045 5.89911C46.5889 5.4006 45.9239 5.15134 44.9265 5.15134H42.9316V16.2849H45.1758ZM42.9731 34.8961H45.0927C46.2564 34.8961 47.0876 34.4807 47.5863 33.6914C48.0435 32.8605 48.2928 31.4065 48.2928 29.3294V26.1721C48.2928 24.178 48.085 22.8071 47.711 21.9763C47.337 21.1454 46.5889 20.73 45.5083 20.73H43.0147V34.8961H42.9731Z" fill="url(#paint2_linear_57_276)"></path><path d="M77.468 37.3472C76.055 39.092 74.1017 39.9644 71.5249 39.9644C68.9482 39.9644 66.9949 39.1751 65.5818 37.638C64.1688 36.1009 63.4623 33.8576 63.4623 30.8665V23.9288H69.1976V30.6172C69.1976 32.7775 69.5301 34.1068 70.2366 34.5638C70.5275 34.7715 70.9431 34.8546 71.4002 34.8546C72.3146 34.8546 72.8964 34.4807 73.1873 33.7329C73.4783 32.9852 73.6029 31.822 73.6029 30.2433V0.498515H79.546V29.9525C79.546 33.1513 78.8395 35.6439 77.468 37.3472Z" fill="url(#paint3_linear_57_276)"></path><path d="M82.3306 39.5074L87.8996 0.498515H95.7545L101.698 39.5074H96.1701L95.2558 32.5282H88.9386L88.1074 39.5074H82.3306ZM94.5908 27.7923L91.9725 8.18398H91.8478L89.4373 27.7923H94.5908Z" fill="url(#paint4_linear_57_276)"></path><path d="M119.361 37.4303C117.989 39.1335 115.828 39.9644 112.794 39.9644C109.802 39.9644 107.599 39.1335 106.228 37.4303C104.856 35.727 104.191 33.1098 104.191 29.4955V0.456973H110.134V29.3709C110.134 31.4065 110.217 32.6944 110.425 33.1098C110.633 33.5668 110.841 33.9407 111.132 34.3145C111.423 34.6884 111.963 34.8546 112.836 34.8546C113.708 34.8546 114.29 34.6053 114.664 34.1068C115.038 33.6083 115.246 32.9852 115.329 32.2374C115.412 31.4896 115.454 30.5341 115.454 29.3709V0.456973H121.397V29.4955C121.397 33.1098 120.732 35.727 119.361 37.4303Z" fill="url(#paint5_linear_57_276)"></path><path d="M125.179 28.5401V25.0504H130.831V28.9555C130.831 31.1157 130.997 32.6528 131.371 33.5252C131.746 34.3976 132.452 34.8546 133.449 34.8546C134.447 34.8546 135.153 34.4807 135.486 33.7745C135.818 33.0682 135.985 31.8635 135.985 30.2433C135.985 28.6231 135.694 27.1691 135.112 25.9644C134.53 24.7596 133.574 23.4718 132.286 22.1424L129.418 19.1513C128.088 17.7389 127.008 16.2849 126.26 14.7893C125.512 13.2938 125.137 11.549 125.137 9.55489C125.137 6.31454 125.761 3.94659 127.008 2.36795C128.254 0.789316 130.374 0 133.408 0C136.442 0 138.478 0.913946 139.559 2.74184C140.639 4.56973 141.18 7.22849 141.18 10.7181V13.1276H135.694V10.3442C135.694 8.43324 135.527 7.10386 135.195 6.273C134.863 5.44214 134.239 5.02671 133.325 5.02671C132.41 5.02671 131.746 5.31751 131.33 5.94065C130.914 6.5638 130.707 7.47774 130.707 8.72403C130.707 9.97032 130.914 10.9674 131.33 11.7151C131.746 12.4629 132.494 13.4184 133.574 14.5401L136.774 18.0297C138.395 19.7745 139.6 21.5608 140.432 23.3472C141.263 25.1335 141.678 27.0861 141.678 29.2047C141.678 32.8605 141.055 35.5608 139.85 37.3056C138.603 39.0504 136.483 39.9229 133.408 39.9229C130.332 39.9229 128.213 38.9674 127.008 37.0148C125.761 35.1039 125.179 32.2789 125.179 28.5401Z" fill="url(#paint6_linear_57_276)"></path><path d="M144.92 0.498515H150.863V34.4807H158.386V39.549H144.92V0.498515Z" fill="url(#paint7_linear_57_276)"></path><path d="M160.962 39.5074V0.498515H166.905V39.5074H160.962Z" fill="url(#paint8_linear_57_276)"></path><path d="M171.893 0.498515H176.547L184.818 23.9288L184.402 13.2938V0.540057H189.763V39.549H185.566L177.046 15.2878L177.379 25.549V39.549H171.893V0.498515Z" fill="url(#paint9_linear_57_276)"></path><path d="M6.15096 55.8338C5.61067 55.8338 5.11195 55.9585 4.65479 56.1662C4.19763 56.3739 3.82359 56.6647 3.49111 57.0801C3.15863 57.454 2.90927 57.9525 2.74303 58.5341C2.57679 59.1157 2.49367 59.7389 2.49367 60.4451C2.49367 61.1929 2.57679 61.816 2.74303 62.3976C2.90927 62.9792 3.11707 63.4362 3.44955 63.8101C3.78203 64.184 4.15607 64.4748 4.57167 64.6825C5.02883 64.8902 5.56911 64.9733 6.19251 64.9733C6.64967 64.9733 7.10684 64.9317 7.52244 64.8487C7.93804 64.7656 8.35364 64.641 8.76924 64.5163V65.7626C8.56144 65.8457 8.35364 65.9288 8.14584 65.9703C7.93804 66.0119 7.73024 66.095 7.52244 66.095C7.31464 66.1365 7.06527 66.178 6.81591 66.178C6.56655 66.178 6.27563 66.2196 5.98471 66.2196C5.15351 66.2196 4.40543 66.0949 3.78203 65.8041C3.15863 65.5133 2.65991 65.1395 2.24431 64.5994C1.82871 64.1009 1.53778 63.4777 1.32998 62.7715C1.12218 62.0653 1.03906 61.2344 1.03906 60.362C1.03906 59.4896 1.16374 58.7003 1.37154 57.9941C1.57935 57.2878 1.91182 56.6647 2.36898 56.1662C2.82615 55.6677 3.36643 55.2522 3.98983 54.9614C4.65479 54.6706 5.36131 54.546 6.23408 54.546C6.77436 54.546 7.31464 54.5875 7.85492 54.7122C8.35364 54.8368 8.8108 55.003 9.2264 55.2107L8.603 56.4154C8.27052 56.2493 7.93804 56.1246 7.52244 56C7.10684 55.9169 6.64968 55.8338 6.15096 55.8338Z" fill="black"></path><path d="M14.463 66.2611C13.8811 66.2611 13.3824 66.178 12.8837 65.9703C12.4265 65.7626 12.0109 65.5134 11.6785 65.1395C11.346 64.7656 11.0966 64.3086 10.8888 63.7685C10.7226 63.2285 10.5979 62.6053 10.5979 61.8991C10.5979 61.1929 10.681 60.5697 10.8473 60.0297C11.0135 59.4896 11.2629 58.9911 11.5538 58.6172C11.8447 58.2433 12.2187 57.9525 12.6759 57.7448C13.0915 57.5371 13.5902 57.454 14.0889 57.454C14.5877 57.454 15.0448 57.5371 15.4604 57.7448C15.876 57.9525 16.2085 58.2018 16.4994 58.5341C16.7904 58.8665 16.9982 59.2819 17.1644 59.7389C17.3306 60.1959 17.4138 60.7359 17.4138 61.276V62.1484H12.0525C12.0941 63.1454 12.3019 63.8932 12.6759 64.3501C13.0499 64.8071 13.6733 65.0564 14.463 65.0564C14.7124 65.0564 14.9617 65.0564 15.2111 65.0148C15.4604 64.9733 15.6682 64.9318 15.876 64.8902C16.0838 64.8487 16.2916 64.7656 16.4994 64.724C16.7072 64.641 16.915 64.5579 17.0813 64.4748V65.7211C16.8735 65.8042 16.6657 65.8872 16.4579 65.9703C16.2501 66.0534 16.0423 66.095 15.8345 66.1365C15.6267 66.178 15.4189 66.2196 15.1695 66.2196C14.9202 66.2196 14.7539 66.2611 14.463 66.2611ZM14.1305 58.5757C13.5487 58.5757 13.0915 58.7834 12.7175 59.1988C12.385 59.6142 12.1772 60.1959 12.1356 60.9436H15.9592C15.9592 60.6113 15.9176 60.2789 15.8345 59.9881C15.7514 59.6973 15.6682 59.4481 15.502 59.2404C15.3358 59.0326 15.1695 58.8665 14.9201 58.7418C14.7123 58.6172 14.463 58.5757 14.1305 58.5757Z" fill="black"></path><path d="M23.4815 57.4125C23.6477 57.4125 23.814 57.4125 23.9802 57.4125C24.1465 57.4125 24.3127 57.454 24.4789 57.454L24.3127 58.7419C24.188 58.7003 24.0218 58.7003 23.8555 58.6588C23.6893 58.6588 23.5646 58.6172 23.4399 58.6172C23.1075 58.6172 22.8165 58.7003 22.5672 58.8249C22.3178 58.9496 22.0685 59.1573 21.8607 59.4065C21.6529 59.6558 21.5282 59.9466 21.4035 60.2789C21.2788 60.6113 21.2373 60.9852 21.2373 61.4421V66.0534H19.8242V57.5786H20.9879L21.1541 59.1573H21.1957C21.3204 58.9496 21.4451 58.7003 21.6113 58.4926C21.7775 58.2849 21.9438 58.1187 22.11 57.9525C22.2763 57.7864 22.4841 57.6617 22.7334 57.5786C22.9412 57.454 23.1906 57.4125 23.4815 57.4125Z" fill="black"></path><path d="M28.8843 65.0979C28.9675 65.0979 29.0921 65.0979 29.2168 65.0979C29.3415 65.0979 29.4662 65.0564 29.5493 65.0564C29.674 65.0564 29.7571 65.0148 29.8402 65.0148C29.9233 65.0148 30.0065 64.9733 30.048 64.9733V66.0534C29.9649 66.0949 29.8818 66.095 29.7987 66.1365C29.7155 66.178 29.5909 66.178 29.4662 66.2196C29.3415 66.2611 29.2168 66.2611 29.0921 66.2611C28.9675 66.2611 28.8428 66.2611 28.6765 66.2611C28.3441 66.2611 28.0531 66.2196 27.8038 66.1365C27.5544 66.0534 27.3051 65.9288 27.0973 65.7211C26.8895 65.5134 26.7232 65.2641 26.6401 64.8902C26.5154 64.5579 26.4739 64.1009 26.4739 63.6024V58.6588H25.2686V57.9941L26.4739 57.3709L27.0973 55.5846H27.9285V57.5371H30.0896V58.6172H27.9285V63.5608C27.9285 64.0593 28.0116 64.4332 28.1778 64.6825C28.3441 64.9317 28.5103 65.0979 28.8843 65.0979Z" fill="black"></path><path d="M31.7104 55.2522C31.7104 54.9614 31.7935 54.7122 31.9597 54.5875C32.126 54.4629 32.3338 54.3798 32.5416 54.3798C32.6663 54.3798 32.7494 54.3798 32.8741 54.4214C32.9572 54.4629 33.0819 54.5045 33.1234 54.5875C33.165 54.6706 33.2481 54.7537 33.2897 54.8783C33.3312 55.003 33.3728 55.1276 33.3728 55.2938C33.3728 55.5846 33.2897 55.8338 33.1234 55.9585C32.9572 56.0831 32.7494 56.1662 32.5416 56.1662C32.2922 56.1662 32.126 56.0831 31.9597 55.9585C31.7935 55.7923 31.7104 55.543 31.7104 55.2522ZM33.2481 66.095H31.8351V57.5786H33.2481V66.095Z" fill="black"></path><path d="M39.8146 58.6172H37.9029V66.095H36.4898V58.6172H34.9937V58.0356L36.4898 57.4956V56.7478C36.4898 56.2077 36.5314 55.7507 36.6561 55.3769C36.7807 55.003 36.947 54.7122 37.1548 54.5045C37.3626 54.2967 37.6535 54.1306 37.986 54.0475C38.3185 53.9644 38.6509 53.9229 39.0665 53.9229C39.3575 53.9229 39.6484 53.9644 39.8977 54.0059C40.1471 54.0475 40.3965 54.1306 40.6043 54.2137L40.2302 55.2938C40.064 55.2522 39.8977 55.1691 39.6899 55.1276C39.4821 55.0861 39.3159 55.0445 39.1081 55.0445C38.9003 55.0445 38.7341 55.0861 38.5678 55.1276C38.4016 55.1691 38.2769 55.2522 38.1938 55.3769C38.1107 55.5015 38.0275 55.6677 37.986 55.8754C37.9444 56.0831 37.9029 56.3739 37.9029 56.7062V57.4956H39.8146V58.6172Z" fill="black"></path><path d="M41.3939 55.2522C41.3939 54.9614 41.477 54.7122 41.6433 54.5875C41.8095 54.4629 42.0173 54.3798 42.2251 54.3798C42.3498 54.3798 42.4329 54.3798 42.5576 54.4214C42.6407 54.4629 42.7654 54.5045 42.807 54.5875C42.8485 54.6706 42.9316 54.7537 42.9732 54.8783C43.0148 55.003 43.0563 55.1276 43.0563 55.2938C43.0563 55.5846 42.9732 55.8338 42.807 55.9585C42.6407 56.0831 42.4329 56.1662 42.2251 56.1662C41.9758 56.1662 41.8095 56.0831 41.6433 55.9585C41.477 55.7923 41.3939 55.543 41.3939 55.2522ZM42.9316 66.095H41.5186V57.5786H42.9316V66.095Z" fill="black"></path><path d="M49.1657 66.2611C48.5838 66.2611 48.0851 66.178 47.5864 65.9703C47.1292 65.7626 46.7136 65.5134 46.3812 65.1395C46.0487 64.7656 45.7993 64.3086 45.5915 63.7685C45.4253 63.2285 45.3006 62.6053 45.3006 61.8991C45.3006 61.1929 45.3837 60.5697 45.55 60.0297C45.7162 59.4896 45.9656 58.9911 46.2565 58.6172C46.5474 58.2433 46.9214 57.9525 47.3786 57.7448C47.7942 57.5371 48.2929 57.454 48.7916 57.454C49.2904 57.454 49.7475 57.5371 50.1631 57.7448C50.5787 57.9525 50.9112 58.2018 51.2021 58.5341C51.4931 58.8665 51.7009 59.2819 51.8671 59.7389C52.0333 60.1959 52.1165 60.7359 52.1165 61.276V62.1484H46.7552C46.7968 63.1454 47.0046 63.8932 47.3786 64.3501C47.7526 64.8071 48.376 65.0564 49.1657 65.0564C49.415 65.0564 49.6644 65.0564 49.9138 65.0148C50.1631 64.9733 50.3709 64.9318 50.5787 64.8902C50.7865 64.8487 50.9943 64.7656 51.2021 64.724C51.4099 64.641 51.6177 64.5579 51.784 64.4748V65.7211C51.5762 65.8042 51.3684 65.8872 51.1606 65.9703C50.9528 66.0534 50.745 66.095 50.5372 66.1365C50.3294 66.178 50.1216 66.2196 49.8722 66.2196C49.6228 66.2196 49.415 66.2611 49.1657 66.2611ZM48.7916 58.5757C48.2098 58.5757 47.7526 58.7834 47.3786 59.1988C47.0461 59.6142 46.8383 60.1959 46.7968 60.9436H50.6203C50.6203 60.6113 50.5787 60.2789 50.4956 59.9881C50.4125 59.6973 50.3294 59.4481 50.1631 59.2404C49.9969 59.0326 49.8306 58.8665 49.5813 58.7418C49.415 58.6172 49.1241 58.5757 48.7916 58.5757Z" fill="black"></path><path d="M59.7219 64.9317H59.6804C59.5557 65.0979 59.431 65.2641 59.2648 65.4303C59.0985 65.5964 58.9323 65.7211 58.7245 65.8457C58.5167 65.9703 58.3089 66.0534 58.0595 66.1365C57.8102 66.2196 57.5192 66.2196 57.2283 66.2196C56.7296 66.2196 56.314 66.1365 55.8984 65.9288C55.4828 65.7626 55.1503 65.4718 54.8594 65.0979C54.5685 64.724 54.3607 64.267 54.1944 63.727C54.0282 63.1869 53.9451 62.5223 53.9451 61.816C53.9451 61.0682 54.0282 60.4451 54.1944 59.905C54.3607 59.365 54.5685 58.908 54.8594 58.5341C55.1503 58.1602 55.4828 57.8694 55.8984 57.7033C56.314 57.4955 56.7296 57.4125 57.2283 57.4125C57.5192 57.4125 57.8102 57.454 58.0595 57.4955C58.3089 57.5371 58.5167 57.6617 58.7245 57.7863C58.9323 57.911 59.0985 58.0356 59.2648 58.2018C59.431 58.3679 59.5557 58.4926 59.6804 58.6587H59.7635C59.7635 58.4926 59.7219 58.3264 59.7219 58.1602C59.7219 58.0356 59.7219 57.8694 59.6804 57.7448C59.6804 57.6202 59.6804 57.4955 59.6804 57.4125V54.0059H61.0934V66.0949H59.9713L59.7219 64.9317ZM57.5192 65.0564C57.8933 65.0564 58.2258 65.0148 58.5167 64.8902C58.8076 64.7656 59.0154 64.5994 59.1816 64.3501C59.3479 64.1009 59.4726 63.8101 59.5557 63.4362C59.6388 63.0623 59.6804 62.6469 59.6804 62.1484V61.816C59.6804 61.276 59.6388 60.819 59.5557 60.4035C59.4726 59.9881 59.3479 59.6558 59.1816 59.365C59.0154 59.0742 58.8076 58.8665 58.5167 58.7418C58.2258 58.6172 57.8933 58.5341 57.4777 58.5341C56.7712 58.5341 56.2724 58.8249 55.94 59.365C55.6075 59.9466 55.4412 60.7359 55.4412 61.816C55.4412 62.8961 55.6075 63.6854 55.94 64.2255C56.2724 64.8071 56.7712 65.0564 57.5192 65.0564Z" fill="black"></path><path d="M68.4496 66.095V54.7537H69.9042V64.8071H74.3511V66.095H68.4496Z" fill="black"></path><path d="M79.5877 66.2611C79.0058 66.2611 78.5071 66.178 78.0084 65.9703C77.5512 65.7626 77.1356 65.5134 76.8031 65.1395C76.4707 64.7656 76.2213 64.3086 76.0135 63.7685C75.8473 63.2285 75.7226 62.6053 75.7226 61.8991C75.7226 61.1929 75.8057 60.5697 75.9719 60.0297C76.1382 59.4896 76.3876 58.9911 76.6785 58.6172C76.9694 58.2433 77.3434 57.9525 77.8006 57.7448C78.2162 57.5371 78.7149 57.454 79.2136 57.454C79.7124 57.454 80.1695 57.5371 80.5851 57.7448C81.0007 57.9525 81.3332 58.2018 81.6241 58.5341C81.915 58.8665 82.1228 59.2819 82.2891 59.7389C82.4553 60.1959 82.5384 60.7359 82.5384 61.276V62.1484H77.1772C77.2188 63.1454 77.4266 63.8932 77.8006 64.3501C78.1746 64.8071 78.798 65.0564 79.5877 65.0564C79.837 65.0564 80.0864 65.0564 80.3358 65.0148C80.5851 64.9733 80.7929 64.9318 81.0007 64.8902C81.2085 64.8487 81.4163 64.7656 81.6241 64.724C81.8319 64.641 82.0397 64.5579 82.206 64.4748V65.7211C81.9982 65.8042 81.7904 65.8872 81.5826 65.9703C81.3748 66.0534 81.167 66.095 80.9592 66.1365C80.7514 66.178 80.5436 66.2196 80.2942 66.2196C80.0448 66.2196 79.837 66.2611 79.5877 66.2611ZM79.2136 58.5757C78.6318 58.5757 78.1746 58.7834 77.8006 59.1988C77.4681 59.6142 77.2603 60.1959 77.2187 60.9436H81.0423C81.0423 60.6113 81.0007 60.2789 80.9176 59.9881C80.8345 59.6973 80.7514 59.4481 80.5851 59.2404C80.4189 59.0326 80.2526 58.8665 80.0033 58.7418C79.837 58.6172 79.5461 58.5757 79.2136 58.5757Z" fill="black"></path><path d="M89.6868 66.095L89.3958 64.9318H89.3543C89.188 65.181 89.0218 65.3472 88.8556 65.5134C88.6893 65.6795 88.4815 65.8042 88.3153 65.9288C88.149 66.0534 87.8997 66.1365 87.6503 66.1781C87.4009 66.2196 87.11 66.2611 86.7775 66.2611C86.4035 66.2611 86.071 66.2196 85.7801 66.095C85.4892 66.0119 85.2398 65.8457 84.9905 65.638C84.7411 65.4303 84.6164 65.181 84.4917 64.8487C84.3671 64.5163 84.3255 64.1424 84.3255 63.727C84.3255 62.8961 84.6164 62.2315 85.2398 61.7745C85.8632 61.3175 86.736 61.0683 87.9828 61.0267L89.3958 60.9852V60.4451C89.3958 60.1128 89.3543 59.822 89.2712 59.5727C89.188 59.3234 89.1049 59.1573 88.9387 58.9911C88.7724 58.8249 88.6062 58.7418 88.3984 58.7003C88.1906 58.6588 87.9412 58.6172 87.6919 58.6172C87.2763 58.6172 86.8607 58.6588 86.4866 58.7834C86.1126 58.908 85.7801 59.0742 85.4061 59.2404L84.9073 58.1602C85.2814 57.9525 85.697 57.7864 86.1957 57.6202C86.6529 57.4956 87.1516 57.4125 87.6919 57.4125C88.2322 57.4125 88.6893 57.454 89.0634 57.5786C89.4374 57.7033 89.7699 57.8694 90.0192 58.0772C90.2686 58.3264 90.4764 58.6172 90.6011 58.9496C90.7258 59.3234 90.7673 59.7389 90.7673 60.2374V66.095H89.6868ZM87.11 65.0979C87.4425 65.0979 87.7334 65.0564 87.9828 64.9318C88.2322 64.8487 88.4815 64.6825 88.6893 64.4748C88.8971 64.2671 89.0218 64.0178 89.1465 63.727C89.2712 63.4362 89.3127 63.0623 89.3127 62.6469V61.8576L88.1906 61.8991C87.7334 61.8991 87.3178 61.9822 87.0269 62.0653C86.6944 62.1484 86.4451 62.273 86.2788 62.3976C86.071 62.5638 85.9464 62.73 85.8632 62.9377C85.7801 63.1454 85.7385 63.3947 85.7385 63.6439C85.7385 64.1009 85.8632 64.4748 86.1126 64.6825C86.362 64.9733 86.6944 65.0979 87.11 65.0979Z" fill="black"></path><path d="M98.7469 64.9317H98.7053C98.5806 65.0979 98.456 65.2641 98.2897 65.4303C98.1235 65.5964 97.9572 65.7211 97.7494 65.8457C97.5416 65.9703 97.3338 66.0534 97.0845 66.1365C96.8351 66.2196 96.5442 66.2196 96.2533 66.2196C95.7546 66.2196 95.339 66.1365 94.9233 65.9288C94.5077 65.7626 94.1753 65.4718 93.8843 65.0979C93.5934 64.724 93.3856 64.267 93.2194 63.727C93.0531 63.1869 92.97 62.5223 92.97 61.816C92.97 61.0682 93.0531 60.4451 93.2194 59.905C93.3856 59.365 93.5934 58.908 93.8843 58.5341C94.1753 58.1602 94.5077 57.8694 94.9233 57.7033C95.339 57.4955 95.7546 57.4125 96.2533 57.4125C96.5442 57.4125 96.8351 57.454 97.0845 57.4955C97.3338 57.5371 97.5416 57.6617 97.7494 57.7863C97.9572 57.911 98.1235 58.0356 98.2897 58.2018C98.456 58.3679 98.5806 58.4926 98.7053 58.6587H98.7884C98.7884 58.4926 98.7469 58.3264 98.7469 58.1602C98.7469 58.0356 98.7469 57.8694 98.7053 57.7448C98.6638 57.6202 98.7053 57.4955 98.7053 57.4125V54.0059H100.118V66.0949H98.9962L98.7469 64.9317ZM96.5442 65.0564C96.9182 65.0564 97.2507 65.0148 97.5416 64.8902C97.8326 64.7656 98.0404 64.5994 98.2066 64.3501C98.3728 64.1009 98.4975 63.8101 98.5806 63.4362C98.6638 63.0623 98.7053 62.6469 98.7053 62.1484V61.816C98.7053 61.276 98.6638 60.819 98.5806 60.4035C98.4975 59.9881 98.3728 59.6558 98.2066 59.365C98.0404 59.0742 97.8326 58.8665 97.5416 58.7418C97.2507 58.6172 96.9182 58.5341 96.5026 58.5341C95.7961 58.5341 95.2974 58.8249 94.9649 59.365C94.6324 59.9466 94.4662 60.7359 94.4662 61.816C94.4662 62.8961 94.6324 63.6854 94.9649 64.2255C95.2974 64.8071 95.7961 65.0564 96.5442 65.0564Z" fill="black"></path><path d="M106.352 66.2611C105.771 66.2611 105.272 66.178 104.773 65.9703C104.316 65.7626 103.9 65.5134 103.568 65.1395C103.235 64.7656 102.986 64.3086 102.778 63.7685C102.612 63.2285 102.487 62.6053 102.487 61.8991C102.487 61.1929 102.57 60.5697 102.737 60.0297C102.903 59.4896 103.152 58.9911 103.443 58.6172C103.734 58.2433 104.108 57.9525 104.565 57.7448C104.981 57.5371 105.48 57.454 105.978 57.454C106.477 57.454 106.934 57.5371 107.35 57.7448C107.765 57.9525 108.098 58.2018 108.389 58.5341C108.68 58.8665 108.888 59.2819 109.054 59.7389C109.22 60.1959 109.303 60.7359 109.303 61.276V62.1484H103.942C103.983 63.1454 104.191 63.8932 104.565 64.3501C104.981 64.8071 105.563 65.0564 106.352 65.0564C106.602 65.0564 106.851 65.0564 107.1 65.0148C107.308 64.9733 107.558 64.9318 107.765 64.8902C107.973 64.8487 108.181 64.7656 108.389 64.724C108.597 64.641 108.804 64.5579 108.971 64.4748V65.7211C108.763 65.8042 108.555 65.8872 108.347 65.9703C108.139 66.0534 107.932 66.095 107.724 66.1365C107.516 66.178 107.308 66.2196 107.059 66.2196C106.851 66.2196 106.602 66.2611 106.352 66.2611ZM105.978 58.5757C105.397 58.5757 104.939 58.7834 104.565 59.1988C104.233 59.6142 104.025 60.1959 103.983 60.9436H107.807C107.807 60.6113 107.765 60.2789 107.682 59.9881C107.599 59.6973 107.516 59.4481 107.35 59.2404C107.184 59.0326 107.017 58.8665 106.768 58.7418C106.602 58.6172 106.311 58.5757 105.978 58.5757Z" fill="black"></path><path d="M115.329 57.4125C115.496 57.4125 115.662 57.4125 115.828 57.4125C115.994 57.4125 116.161 57.454 116.327 57.454L116.161 58.7419C116.036 58.7003 115.87 58.7003 115.703 58.6588C115.537 58.6588 115.412 58.6172 115.288 58.6172C114.955 58.6172 114.664 58.7003 114.415 58.8249C114.166 58.9496 113.916 59.1573 113.709 59.4065C113.501 59.6558 113.376 59.9466 113.251 60.2789C113.127 60.6113 113.085 60.9852 113.085 61.4421V66.0534H111.672V57.5786H112.836L113.002 59.1573H113.044C113.168 58.9496 113.293 58.7003 113.459 58.4926C113.625 58.2849 113.792 58.1187 113.958 57.9525C114.124 57.7864 114.332 57.6617 114.581 57.5786C114.789 57.454 115.038 57.4125 115.329 57.4125Z" fill="black"></path><path d="M123.267 63.7685C123.267 64.184 123.184 64.5579 123.06 64.8487C122.893 65.1395 122.685 65.4303 122.395 65.638C122.104 65.8457 121.771 66.0119 121.356 66.0949C120.94 66.178 120.524 66.2611 120.026 66.2611C119.444 66.2611 118.987 66.2196 118.571 66.1365C118.155 66.0534 117.823 65.9288 117.49 65.7211V64.4332C117.657 64.5163 117.823 64.5994 118.031 64.6825C118.239 64.7656 118.446 64.8487 118.654 64.8902C118.862 64.9317 119.111 65.0148 119.319 65.0564C119.568 65.0979 119.776 65.0979 120.026 65.0979C120.358 65.0979 120.649 65.0564 120.898 65.0148C121.148 64.9733 121.314 64.8902 121.48 64.7656C121.646 64.6409 121.73 64.5163 121.813 64.3917C121.896 64.2255 121.896 64.0593 121.896 63.8932C121.896 63.727 121.854 63.6024 121.813 63.4777C121.771 63.3531 121.646 63.2285 121.522 63.1038C121.397 62.9792 121.189 62.8546 120.94 62.73C120.691 62.6053 120.4 62.4392 120.026 62.3145C119.652 62.1484 119.319 61.9822 119.028 61.8576C118.737 61.7329 118.488 61.5252 118.28 61.3175C118.072 61.1098 117.906 60.9021 117.781 60.6528C117.657 60.4036 117.615 60.1128 117.615 59.7389C117.615 59.365 117.698 59.0742 117.823 58.7834C117.948 58.4926 118.155 58.2849 118.405 58.0771C118.654 57.8694 118.987 57.7448 119.319 57.6617C119.693 57.5786 120.067 57.4955 120.524 57.4955C121.023 57.4955 121.48 57.5371 121.896 57.6617C122.311 57.7863 122.727 57.911 123.101 58.0771L122.602 59.1988C122.27 59.0326 121.937 58.908 121.563 58.8249C121.189 58.7003 120.857 58.6587 120.483 58.6587C119.943 58.6587 119.568 58.7418 119.319 58.908C119.07 59.0742 118.945 59.3234 118.945 59.6558C118.945 59.822 118.987 59.9881 119.028 60.1128C119.07 60.2374 119.194 60.362 119.319 60.4866C119.444 60.6113 119.652 60.7359 119.901 60.8605C120.15 60.9852 120.441 61.1098 120.815 61.276C121.189 61.4421 121.522 61.5668 121.813 61.7329C122.104 61.8991 122.353 62.0653 122.561 62.273C122.769 62.4807 122.935 62.6884 123.018 62.9377C123.184 63.1038 123.267 63.3946 123.267 63.7685Z" fill="black"></path><path d="M130.831 66.0949V60.6113C130.831 59.9466 130.707 59.4481 130.416 59.1157C130.125 58.7834 129.709 58.6172 129.127 58.6172C128.712 58.6172 128.338 58.7003 128.088 58.8249C127.797 58.9495 127.59 59.1573 127.382 59.4065C127.215 59.6558 127.091 59.9881 127.008 60.362C126.925 60.7359 126.883 61.1929 126.883 61.6914V66.0949H125.47V54.0059H126.883V57.5786L126.841 58.7003H126.925C127.049 58.4926 127.215 58.2849 127.382 58.1187C127.548 57.9525 127.756 57.8279 127.964 57.7033C128.171 57.5786 128.421 57.4955 128.629 57.454C128.878 57.4124 129.127 57.3709 129.377 57.3709C130.333 57.3709 131.039 57.6202 131.496 58.1187C131.995 58.6172 132.203 59.4065 132.203 60.4866V66.0534H130.831V66.0949Z" fill="black"></path><path d="M134.904 55.2522C134.904 54.9614 134.987 54.7122 135.154 54.5875C135.32 54.4629 135.528 54.3798 135.735 54.3798C135.86 54.3798 135.943 54.3798 136.068 54.4214C136.151 54.4629 136.276 54.5045 136.317 54.5875C136.359 54.6706 136.442 54.7537 136.483 54.8783C136.525 55.003 136.567 55.1276 136.567 55.2938C136.567 55.5846 136.483 55.8338 136.317 55.9585C136.151 56.0831 135.943 56.1662 135.735 56.1662C135.486 56.1662 135.32 56.0831 135.154 55.9585C134.987 55.7923 134.904 55.543 134.904 55.2522ZM136.442 66.095H135.029V57.5786H136.442V66.095Z" fill="black"></path><path d="M143.133 66.2611C142.842 66.2611 142.551 66.2196 142.302 66.1781C142.052 66.095 141.845 66.0119 141.637 65.9288C141.429 65.8042 141.263 65.6795 141.097 65.5549C140.93 65.4303 140.806 65.2641 140.681 65.0979H140.598C140.598 65.2641 140.639 65.4303 140.639 65.5964C140.639 65.7211 140.639 65.8872 140.681 66.0119C140.681 66.1365 140.681 66.2611 140.681 66.3442V70H139.268V57.5786H140.432L140.639 58.7419H140.681C140.806 58.5757 140.93 58.4095 141.097 58.2433C141.263 58.0772 141.429 57.9525 141.637 57.8279C141.845 57.7033 142.052 57.6202 142.302 57.5371C142.551 57.454 142.842 57.4125 143.133 57.4125C143.632 57.4125 144.047 57.4956 144.463 57.7033C144.879 57.8694 145.211 58.1602 145.502 58.5341C145.793 58.908 146.001 59.365 146.167 59.9051C146.333 60.4451 146.416 61.1098 146.416 61.816C146.416 62.5638 146.333 63.1869 146.167 63.727C146.001 64.2671 145.793 64.724 145.502 65.0979C145.211 65.4718 144.879 65.7626 144.463 65.9288C144.089 66.1365 143.632 66.2611 143.133 66.2611ZM142.884 58.5757C142.51 58.5757 142.177 58.6172 141.886 58.7419C141.595 58.8665 141.388 59.0327 141.221 59.2819C141.055 59.5312 140.93 59.822 140.847 60.1959C140.764 60.5697 140.723 60.9852 140.723 61.4837V61.816C140.723 62.3561 140.764 62.8131 140.847 63.2285C140.93 63.6439 141.055 63.9763 141.221 64.2671C141.388 64.5579 141.595 64.7656 141.886 64.8902C142.177 65.0148 142.51 65.0979 142.925 65.0979C143.632 65.0979 144.13 64.8071 144.463 64.2671C144.795 63.6855 144.962 62.8962 144.962 61.816C144.962 60.7359 144.795 59.9466 144.463 59.4065C144.089 58.8249 143.59 58.5757 142.884 58.5757Z" fill="black"></path><path d="M157.887 55.8338C157.347 55.8338 156.848 55.9585 156.391 56.1662C155.934 56.3739 155.56 56.6647 155.227 57.0801C154.895 57.4955 154.645 57.9525 154.479 58.5341C154.313 59.1157 154.23 59.7389 154.23 60.4451C154.23 61.1929 154.313 61.816 154.479 62.3976C154.645 62.9792 154.853 63.4362 155.186 63.8101C155.518 64.184 155.892 64.4748 156.308 64.6825C156.765 64.8902 157.305 64.9733 157.928 64.9733C158.386 64.9733 158.843 64.9317 159.258 64.8487C159.674 64.7656 160.09 64.641 160.505 64.5163V65.7626C160.297 65.8457 160.09 65.9288 159.882 65.9703C159.674 66.0119 159.466 66.095 159.258 66.095C159.051 66.1365 158.801 66.178 158.552 66.178C158.303 66.178 158.012 66.2196 157.721 66.2196C156.889 66.2196 156.141 66.0949 155.518 65.8041C154.895 65.5133 154.396 65.1395 153.98 64.5994C153.565 64.1009 153.274 63.4777 153.066 62.7715C152.858 62.0653 152.775 61.2344 152.775 60.362C152.775 59.4896 152.9 58.7003 153.108 57.9941C153.315 57.2878 153.648 56.6647 154.105 56.1662C154.562 55.6677 155.102 55.2522 155.726 54.9614C156.391 54.6706 157.097 54.546 157.97 54.546C158.51 54.546 159.051 54.5875 159.591 54.7122C160.09 54.8368 160.547 55.003 160.962 55.2107L160.339 56.4154C160.006 56.2493 159.674 56.1246 159.258 56C158.801 55.9169 158.344 55.8338 157.887 55.8338Z" fill="black"></path><path d="M169.773 61.816C169.773 62.5223 169.69 63.1454 169.524 63.727C169.357 64.2671 169.108 64.724 168.776 65.0979C168.443 65.4718 168.069 65.7626 167.612 65.9703C167.155 66.1781 166.614 66.2611 166.074 66.2611C165.534 66.2611 165.035 66.1781 164.578 65.9703C164.121 65.7626 163.747 65.4718 163.414 65.0979C163.082 64.724 162.833 64.2671 162.625 63.727C162.417 63.1869 162.334 62.5638 162.334 61.816C162.334 61.1098 162.417 60.4867 162.583 59.9466C162.749 59.4065 162.999 58.9496 163.331 58.5757C163.664 58.2018 164.038 57.911 164.495 57.7033C164.952 57.4956 165.492 57.4125 166.033 57.4125C166.573 57.4125 167.072 57.4956 167.529 57.7033C167.986 57.911 168.36 58.2018 168.693 58.5757C169.025 58.9496 169.274 59.4065 169.482 59.9466C169.69 60.4867 169.773 61.1098 169.773 61.816ZM163.788 61.816C163.788 62.8962 163.955 63.727 164.329 64.2671C164.703 64.8071 165.243 65.0979 166.074 65.0979C166.864 65.0979 167.446 64.8071 167.778 64.2671C168.111 63.727 168.318 62.8962 168.318 61.816C168.318 60.7359 168.152 59.9051 167.778 59.4065C167.404 58.8665 166.864 58.6172 166.033 58.6172C165.201 58.6172 164.661 58.8665 164.329 59.4065C163.996 59.9051 163.788 60.7359 163.788 61.816Z" fill="black"></path><path d="M176.963 66.095L176.672 64.9318H176.631C176.464 65.181 176.298 65.3472 176.132 65.5134C175.966 65.6795 175.758 65.8042 175.592 65.9288C175.425 66.0534 175.176 66.1365 174.927 66.1781C174.677 66.2196 174.386 66.2611 174.054 66.2611C173.68 66.2611 173.347 66.2196 173.056 66.095C172.765 66.0119 172.516 65.8457 172.267 65.638C172.059 65.4303 171.893 65.181 171.768 64.8487C171.643 64.5163 171.602 64.1424 171.602 63.727C171.602 62.8961 171.893 62.2315 172.516 61.7745C173.139 61.3175 174.012 61.0683 175.259 61.0267L176.672 60.9852V60.4451C176.672 60.1128 176.631 59.822 176.547 59.5727C176.464 59.3234 176.381 59.1573 176.215 58.9911C176.09 58.8665 175.882 58.7418 175.675 58.7003C175.467 58.6588 175.217 58.6172 174.968 58.6172C174.553 58.6172 174.137 58.6588 173.763 58.7834C173.389 58.908 173.056 59.0742 172.682 59.2404L172.184 58.1602C172.558 57.9525 173.015 57.7864 173.472 57.6202C173.929 57.4956 174.428 57.4125 174.968 57.4125C175.508 57.4125 175.966 57.454 176.34 57.5786C176.714 57.7033 177.046 57.8694 177.295 58.0772C177.545 58.2849 177.753 58.6172 177.877 58.9496C178.002 59.3234 178.044 59.7389 178.044 60.2374V66.095H176.963ZM174.386 65.0979C174.719 65.0979 175.01 65.0564 175.259 64.9318C175.508 64.8487 175.758 64.6825 175.966 64.4748C176.173 64.2671 176.298 64.0178 176.423 63.727C176.547 63.4362 176.589 63.0623 176.589 62.6469V61.8576L175.467 61.8991C175.01 61.8991 174.594 61.9822 174.303 62.0653C173.971 62.1484 173.721 62.273 173.555 62.3976C173.347 62.5638 173.223 62.73 173.139 62.9377C173.056 63.1454 173.015 63.3947 173.015 63.6439C173.015 64.1009 173.139 64.4748 173.389 64.6825C173.638 64.8902 173.971 65.0979 174.386 65.0979Z" fill="black"></path><path d="M184.028 66.2611C183.488 66.2611 183.031 66.178 182.574 66.0119C182.116 65.8457 181.742 65.5964 181.368 65.2225C181.036 64.8486 180.787 64.4332 180.579 63.8516C180.371 63.27 180.288 62.6469 180.288 61.8576C180.288 61.0267 180.371 60.362 180.579 59.7804C180.787 59.1988 181.036 58.7418 181.41 58.4095C181.742 58.0356 182.158 57.7863 182.615 57.6202C183.072 57.454 183.571 57.3709 184.111 57.3709C184.527 57.3709 184.901 57.4125 185.317 57.4955C185.691 57.5786 186.023 57.7033 186.272 57.8279L185.857 59.0326C185.732 58.9911 185.607 58.9495 185.441 58.8665C185.275 58.7834 185.15 58.7834 184.984 58.7418C184.818 58.7003 184.693 58.6587 184.527 58.6587C184.361 58.6172 184.236 58.6172 184.111 58.6172C183.28 58.6172 182.698 58.8665 182.324 59.4065C181.95 59.9466 181.784 60.7359 181.784 61.816C181.784 62.8961 181.992 63.727 182.366 64.2255C182.74 64.724 183.322 64.9733 184.07 64.9733C184.485 64.9733 184.859 64.9317 185.192 64.8487C185.524 64.7656 185.857 64.6409 186.106 64.5163V65.7626C185.815 65.9288 185.524 66.0119 185.192 66.0949C184.859 66.2196 184.485 66.2611 184.028 66.2611Z" fill="black"></path><path d="M193.629 66.0949V60.6113C193.629 59.9466 193.504 59.4481 193.213 59.1157C192.922 58.7834 192.506 58.6172 191.925 58.6172C191.509 58.6172 191.135 58.7003 190.886 58.8249C190.595 58.9495 190.387 59.1573 190.179 59.4065C190.013 59.6558 189.888 59.9881 189.805 60.362C189.722 60.7359 189.68 61.1929 189.68 61.6914V66.0949H188.267V54.0059H189.68V57.5786L189.639 58.7003H189.722C189.847 58.4926 190.013 58.2849 190.179 58.1187C190.345 57.9525 190.553 57.8279 190.761 57.7033C190.969 57.5786 191.218 57.4955 191.426 57.454C191.675 57.4124 191.925 57.3709 192.174 57.3709C193.13 57.3709 193.836 57.6202 194.294 58.1187C194.792 58.6172 195 59.4065 195 60.4866V66.0534H193.629V66.0949Z" fill="black"></path><defs><linearGradient id="paint0_linear_57_276" x1="187.56" y1="20.4207" x2="2.07052" y2="20.2579" gradientUnits="userSpaceOnUse"><stop stop-color="#C21A1A"></stop><stop offset="1" stop-color="#FF5757"></stop></linearGradient><linearGradient id="paint1_linear_57_276" x1="187.56" y1="20.4207" x2="2.07052" y2="20.2579" gradientUnits="userSpaceOnUse"><stop stop-color="#C21A1A"></stop><stop offset="1" stop-color="#FF5757"></stop></linearGradient><linearGradient id="paint2_linear_57_276" x1="187.56" y1="20.4207" x2="2.07052" y2="20.2579" gradientUnits="userSpaceOnUse"><stop stop-color="#C21A1A"></stop><stop offset="1" stop-color="#FF5757"></stop></linearGradient><linearGradient id="paint3_linear_57_276" x1="187.56" y1="20.4207" x2="2.07052" y2="20.2579" gradientUnits="userSpaceOnUse"><stop stop-color="#C21A1A"></stop><stop offset="1" stop-color="#FF5757"></stop></linearGradient><linearGradient id="paint4_linear_57_276" x1="187.56" y1="20.4207" x2="2.07052" y2="20.2579" gradientUnits="userSpaceOnUse"><stop stop-color="#C21A1A"></stop><stop offset="1" stop-color="#FF5757"></stop></linearGradient><linearGradient id="paint5_linear_57_276" x1="187.56" y1="20.4207" x2="2.07052" y2="20.2579" gradientUnits="userSpaceOnUse"><stop stop-color="#C21A1A"></stop><stop offset="1" stop-color="#FF5757"></stop></linearGradient><linearGradient id="paint6_linear_57_276" x1="187.56" y1="20.4207" x2="2.07052" y2="20.2579" gradientUnits="userSpaceOnUse"><stop stop-color="#C21A1A"></stop><stop offset="1" stop-color="#FF5757"></stop></linearGradient><linearGradient id="paint7_linear_57_276" x1="187.56" y1="20.4207" x2="2.07052" y2="20.2579" gradientUnits="userSpaceOnUse"><stop stop-color="#C21A1A"></stop><stop offset="1" stop-color="#FF5757"></stop></linearGradient><linearGradient id="paint8_linear_57_276" x1="187.56" y1="20.4207" x2="2.07052" y2="20.2579" gradientUnits="userSpaceOnUse"><stop stop-color="#C21A1A"></stop><stop offset="1" stop-color="#FF5757"></stop></linearGradient><linearGradient id="paint9_linear_57_276" x1="187.56" y1="20.4207" x2="2.07052" y2="20.2579" gradientUnits="userSpaceOnUse"><stop stop-color="#C21A1A"></stop><stop offset="1" stop-color="#FF5757"></stop></linearGradient></defs></svg> 